<svg width="367" height="440" viewBox="0 0 367 440" fill="none" xmlns="http://www.w3.org/2000/svg">
<path d="M11.8922 434.054C11.8922 437.338 9.23018 440 5.94608 440C2.66198 440 0 437.338 0 434.054C0 430.77 2.66198 428.108 5.94608 428.108C9.23018 428.108 11.8922 430.77 11.8922 434.054ZM41.6201 428.108C38.336 428.108 35.674 430.77 35.674 434.054C35.674 437.338 38.336 440 41.6201 440C44.9042 440 47.5662 437.338 47.5662 434.054C47.5662 430.77 44.9042 428.108 41.6201 428.108ZM77.2966 428.108C74.0125 428.108 71.3505 430.77 71.3505 434.054C71.3505 437.338 74.0125 440 77.2966 440C80.5807 440 83.2426 437.338 83.2426 434.054C83.2426 430.77 80.5807 428.108 77.2966 428.108ZM112.971 428.108C109.686 428.108 107.024 430.77 107.024 434.054C107.024 437.338 109.686 440 112.971 440C116.255 440 118.917 437.338 118.917 434.054C118.917 430.77 116.255 428.108 112.971 428.108ZM148.647 428.108C145.363 428.108 142.701 430.77 142.701 434.054C142.701 437.338 145.363 440 148.647 440C151.931 440 154.593 437.338 154.593 434.054C154.593 430.77 151.931 428.108 148.647 428.108ZM184.324 428.108C181.039 428.108 178.377 430.77 178.377 434.054C178.377 437.338 181.039 440 184.324 440C187.608 440 190.27 437.338 190.27 434.054C190.27 430.77 187.608 428.108 184.324 428.108ZM219.998 428.108C216.713 428.108 214.051 430.77 214.051 434.054C214.051 437.338 216.713 440 219.998 440C223.282 440 225.944 437.338 225.944 434.054C225.944 430.77 223.282 428.108 219.998 428.108ZM255.674 428.108C252.39 428.108 249.728 430.77 249.728 434.054C249.728 437.338 252.39 440 255.674 440C258.958 440 261.62 437.338 261.62 434.054C261.62 430.77 258.958 428.108 255.674 428.108ZM291.35 428.108C288.066 428.108 285.404 430.77 285.404 434.054C285.404 437.338 288.066 440 291.35 440C294.635 440 297.297 437.338 297.297 434.054C297.294 430.77 294.632 428.108 291.35 428.108ZM327.024 428.108C323.74 428.108 321.078 430.77 321.078 434.054C321.078 437.338 323.74 440 327.024 440C330.309 440 332.971 437.338 332.971 434.054C332.971 430.77 330.309 428.108 327.024 428.108ZM362.701 428.108C359.417 428.108 356.755 430.77 356.755 434.054C356.755 437.338 359.417 440 362.701 440C365.985 440 368.647 437.338 368.647 434.054C368.647 430.77 365.985 428.108 362.701 428.108ZM398.375 428.108C395.091 428.108 392.429 430.77 392.429 434.054C392.429 437.338 395.091 440 398.375 440C401.659 440 404.321 437.338 404.321 434.054C404.321 430.77 401.659 428.108 398.375 428.108ZM434.051 428.108C430.767 428.108 428.105 430.77 428.105 434.054C428.105 437.338 430.767 440 434.051 440C437.336 440 439.997 437.338 439.997 434.054C439.997 430.77 437.336 428.108 434.051 428.108ZM5.94608 392.431C2.66198 392.431 0 395.093 0 398.377C0 401.662 2.66198 404.323 5.94608 404.323C9.23018 404.323 11.8922 401.662 11.8922 398.377C11.8922 395.093 9.23018 392.431 5.94608 392.431ZM41.6201 392.431C38.336 392.431 35.674 395.093 35.674 398.377C35.674 401.662 38.336 404.323 41.6201 404.323C44.9042 404.323 47.5662 401.662 47.5662 398.377C47.5662 395.093 44.9042 392.431 41.6201 392.431ZM77.2966 392.431C74.0125 392.431 71.3505 395.093 71.3505 398.377C71.3505 401.662 74.0125 404.323 77.2966 404.323C80.5807 404.323 83.2426 401.662 83.2426 398.377C83.2426 395.093 80.5807 392.431 77.2966 392.431ZM112.971 392.431C109.686 392.431 107.024 395.093 107.024 398.377C107.024 401.662 109.686 404.323 112.971 404.323C116.255 404.323 118.917 401.662 118.917 398.377C118.917 395.093 116.255 392.431 112.971 392.431ZM148.647 392.431C145.363 392.431 142.701 395.093 142.701 398.377C142.701 401.662 145.363 404.323 148.647 404.323C151.931 404.323 154.593 401.662 154.593 398.377C154.593 395.093 151.931 392.431 148.647 392.431ZM184.324 392.431C181.039 392.431 178.377 395.093 178.377 398.377C178.377 401.662 181.039 404.323 184.324 404.323C187.608 404.323 190.27 401.662 190.27 398.377C190.27 395.093 187.608 392.431 184.324 392.431ZM219.998 392.431C216.713 392.431 214.051 395.093 214.051 398.377C214.051 401.662 216.713 404.323 219.998 404.323C223.282 404.323 225.944 401.662 225.944 398.377C225.944 395.093 223.282 392.431 219.998 392.431ZM255.674 392.431C252.39 392.431 249.728 395.093 249.728 398.377C249.728 401.662 252.39 404.323 255.674 404.323C258.958 404.323 261.62 401.662 261.62 398.377C261.62 395.093 258.958 392.431 255.674 392.431ZM291.35 392.431C288.066 392.431 285.404 395.093 285.404 398.377C285.404 401.662 288.066 404.323 291.35 404.323C294.635 404.323 297.297 401.662 297.297 398.377C297.294 395.093 294.632 392.431 291.35 392.431ZM327.024 392.431C323.74 392.431 321.078 395.093 321.078 398.377C321.078 401.662 323.74 404.323 327.024 404.323C330.309 404.323 332.971 401.662 332.971 398.377C332.971 395.093 330.309 392.431 327.024 392.431ZM362.701 392.431C359.417 392.431 356.755 395.093 356.755 398.377C356.755 401.662 359.417 404.323 362.701 404.323C365.985 404.323 368.647 401.662 368.647 398.377C368.647 395.093 365.985 392.431 362.701 392.431ZM398.375 392.431C395.091 392.431 392.429 395.093 392.429 398.377C392.429 401.662 395.091 404.323 398.375 404.323C401.659 404.323 404.321 401.662 404.321 398.377C404.321 395.093 401.659 392.431 398.375 392.431ZM434.051 392.431C430.767 392.431 428.105 395.093 428.105 398.377C428.105 401.662 430.767 404.323 434.051 404.323C437.336 404.323 439.997 401.662 439.997 398.377C439.997 395.093 437.336 392.431 434.051 392.431ZM5.94608 356.755C2.66198 356.755 0 359.417 0 362.701C0 365.985 2.66198 368.647 5.94608 368.647C9.23018 368.647 11.8922 365.985 11.8922 362.701C11.8922 359.417 9.23018 356.755 5.94608 356.755ZM41.6201 356.755C38.336 356.755 35.674 359.417 35.674 362.701C35.674 365.985 38.336 368.647 41.6201 368.647C44.9042 368.647 47.5662 365.985 47.5662 362.701C47.5662 359.417 44.9042 356.755 41.6201 356.755ZM77.2966 356.755C74.0125 356.755 71.3505 359.417 71.3505 362.701C71.3505 365.985 74.0125 368.647 77.2966 368.647C80.5807 368.647 83.2426 365.985 83.2426 362.701C83.2426 359.417 80.5807 356.755 77.2966 356.755ZM112.971 356.755C109.686 356.755 107.024 359.417 107.024 362.701C107.024 365.985 109.686 368.647 112.971 368.647C116.255 368.647 118.917 365.985 118.917 362.701C118.917 359.417 116.255 356.755 112.971 356.755ZM148.647 356.755C145.363 356.755 142.701 359.417 142.701 362.701C142.701 365.985 145.363 368.647 148.647 368.647C151.931 368.647 154.593 365.985 154.593 362.701C154.593 359.417 151.931 356.755 148.647 356.755ZM184.324 356.755C181.039 356.755 178.377 359.417 178.377 362.701C178.377 365.985 181.039 368.647 184.324 368.647C187.608 368.647 190.27 365.985 190.27 362.701C190.27 359.417 187.608 356.755 184.324 356.755ZM219.998 356.755C216.713 356.755 214.051 359.417 214.051 362.701C214.051 365.985 216.713 368.647 219.998 368.647C223.282 368.647 225.944 365.985 225.944 362.701C225.944 359.417 223.282 356.755 219.998 356.755ZM255.674 356.755C252.39 356.755 249.728 359.417 249.728 362.701C249.728 365.985 252.39 368.647 255.674 368.647C258.958 368.647 261.62 365.985 261.62 362.701C261.62 359.417 258.958 356.755 255.674 356.755ZM291.35 356.755C288.066 356.755 285.404 359.417 285.404 362.701C285.404 365.985 288.066 368.647 291.35 368.647C294.635 368.647 297.297 365.985 297.297 362.701C297.294 359.417 294.632 356.755 291.35 356.755ZM327.024 356.755C323.74 356.755 321.078 359.417 321.078 362.701C321.078 365.985 323.74 368.647 327.024 368.647C330.309 368.647 332.971 365.985 332.971 362.701C332.971 359.417 330.309 356.755 327.024 356.755ZM362.701 356.755C359.417 356.755 356.755 359.417 356.755 362.701C356.755 365.985 359.417 368.647 362.701 368.647C365.985 368.647 368.647 365.985 368.647 362.701C368.647 359.417 365.985 356.755 362.701 356.755ZM398.375 356.755C395.091 356.755 392.429 359.417 392.429 362.701C392.429 365.985 395.091 368.647 398.375 368.647C401.659 368.647 404.321 365.985 404.321 362.701C404.321 359.417 401.659 356.755 398.375 356.755ZM434.051 356.755C430.767 356.755 428.105 359.417 428.105 362.701C428.105 365.985 430.767 368.647 434.051 368.647C437.336 368.647 439.997 365.985 439.997 362.701C439.997 359.417 437.336 356.755 434.051 356.755ZM5.94608 321.081C2.66198 321.081 0 323.743 0 327.027C0 330.311 2.66198 332.973 5.94608 332.973C9.23018 332.973 11.8922 330.311 11.8922 327.027C11.8922 323.743 9.23018 321.081 5.94608 321.081ZM41.6201 321.081C38.336 321.081 35.674 323.743 35.674 327.027C35.674 330.311 38.336 332.973 41.6201 332.973C44.9042 332.973 47.5662 330.311 47.5662 327.027C47.5662 323.743 44.9042 321.081 41.6201 321.081ZM77.2966 321.081C74.0125 321.081 71.3505 323.743 71.3505 327.027C71.3505 330.311 74.0125 332.973 77.2966 332.973C80.5807 332.973 83.2426 330.311 83.2426 327.027C83.2426 323.743 80.5807 321.081 77.2966 321.081ZM112.971 321.081C109.686 321.081 107.024 323.743 107.024 327.027C107.024 330.311 109.686 332.973 112.971 332.973C116.255 332.973 118.917 330.311 118.917 327.027C118.917 323.743 116.255 321.081 112.971 321.081ZM148.647 321.081C145.363 321.081 142.701 323.743 142.701 327.027C142.701 330.311 145.363 332.973 148.647 332.973C151.931 332.973 154.593 330.311 154.593 327.027C154.593 323.743 151.931 321.081 148.647 321.081ZM184.324 321.081C181.039 321.081 178.377 323.743 178.377 327.027C178.377 330.311 181.039 332.973 184.324 332.973C187.608 332.973 190.27 330.311 190.27 327.027C190.27 323.743 187.608 321.081 184.324 321.081ZM219.998 321.081C216.713 321.081 214.051 323.743 214.051 327.027C214.051 330.311 216.713 332.973 219.998 332.973C223.282 332.973 225.944 330.311 225.944 327.027C225.944 323.743 223.282 321.081 219.998 321.081ZM255.674 321.081C252.39 321.081 249.728 323.743 249.728 327.027C249.728 330.311 252.39 332.973 255.674 332.973C258.958 332.973 261.62 330.311 261.62 327.027C261.62 323.743 258.958 321.081 255.674 321.081ZM291.35 321.081C288.066 321.081 285.404 323.743 285.404 327.027C285.404 330.311 288.066 332.973 291.35 332.973C294.635 332.973 297.297 330.311 297.297 327.027C297.294 323.743 294.632 321.081 291.35 321.081ZM327.024 321.081C323.74 321.081 321.078 323.743 321.078 327.027C321.078 330.311 323.74 332.973 327.024 332.973C330.309 332.973 332.971 330.311 332.971 327.027C332.971 323.743 330.309 321.081 327.024 321.081ZM362.701 321.081C359.417 321.081 356.755 323.743 356.755 327.027C356.755 330.311 359.417 332.973 362.701 332.973C365.985 332.973 368.647 330.311 368.647 327.027C368.647 323.743 365.985 321.081 362.701 321.081ZM398.375 321.081C395.091 321.081 392.429 323.743 392.429 327.027C392.429 330.311 395.091 332.973 398.375 332.973C401.659 332.973 404.321 330.311 404.321 327.027C404.321 323.743 401.659 321.081 398.375 321.081ZM434.051 321.081C430.767 321.081 428.105 323.743 428.105 327.027C428.105 330.311 430.767 332.973 434.051 332.973C437.336 332.973 439.997 330.311 439.997 327.027C439.997 323.743 437.336 321.081 434.051 321.081ZM5.94608 285.404C2.66198 285.404 0 288.066 0 291.35C0 294.635 2.66198 297.297 5.94608 297.297C9.23018 297.297 11.8922 294.635 11.8922 291.35C11.8922 288.066 9.23018 285.404 5.94608 285.404ZM41.6201 285.404C38.336 285.404 35.674 288.066 35.674 291.35C35.674 294.635 38.336 297.297 41.6201 297.297C44.9042 297.297 47.5662 294.635 47.5662 291.35C47.5662 288.066 44.9042 285.404 41.6201 285.404ZM77.2966 285.404C74.0125 285.404 71.3505 288.066 71.3505 291.35C71.3505 294.635 74.0125 297.297 77.2966 297.297C80.5807 297.297 83.2426 294.635 83.2426 291.35C83.2426 288.066 80.5807 285.404 77.2966 285.404ZM112.971 285.404C109.686 285.404 107.024 288.066 107.024 291.35C107.024 294.635 109.686 297.297 112.971 297.297C116.255 297.297 118.917 294.635 118.917 291.35C118.917 288.066 116.255 285.404 112.971 285.404ZM148.647 285.404C145.363 285.404 142.701 288.066 142.701 291.35C142.701 294.635 145.363 297.297 148.647 297.297C151.931 297.297 154.593 294.635 154.593 291.35C154.593 288.066 151.931 285.404 148.647 285.404ZM184.324 285.404C181.039 285.404 178.377 288.066 178.377 291.35C178.377 294.635 181.039 297.297 184.324 297.297C187.608 297.297 190.27 294.635 190.27 291.35C190.27 288.066 187.608 285.404 184.324 285.404ZM219.998 285.404C216.713 285.404 214.051 288.066 214.051 291.35C214.051 294.635 216.713 297.297 219.998 297.297C223.282 297.297 225.944 294.635 225.944 291.35C225.944 288.066 223.282 285.404 219.998 285.404ZM255.674 285.404C252.39 285.404 249.728 288.066 249.728 291.35C249.728 294.635 252.39 297.297 255.674 297.297C258.958 297.297 261.62 294.635 261.62 291.35C261.62 288.066 258.958 285.404 255.674 285.404ZM291.35 285.404C288.066 285.404 285.404 288.066 285.404 291.35C285.404 294.635 288.066 297.297 291.35 297.297C294.635 297.297 297.297 294.635 297.297 291.35C297.294 288.066 294.632 285.404 291.35 285.404ZM327.024 285.404C323.74 285.404 321.078 288.066 321.078 291.35C321.078 294.635 323.74 297.297 327.024 297.297C330.309 297.297 332.971 294.635 332.971 291.35C332.971 288.066 330.309 285.404 327.024 285.404ZM362.701 285.404C359.417 285.404 356.755 288.066 356.755 291.35C356.755 294.635 359.417 297.297 362.701 297.297C365.985 297.297 368.647 294.635 368.647 291.35C368.647 288.066 365.985 285.404 362.701 285.404ZM398.375 285.404C395.091 285.404 392.429 288.066 392.429 291.35C392.429 294.635 395.091 297.297 398.375 297.297C401.659 297.297 404.321 294.635 404.321 291.35C404.321 288.066 401.659 285.404 398.375 285.404ZM434.051 285.404C430.767 285.404 428.105 288.066 428.105 291.35C428.105 294.635 430.767 297.297 434.051 297.297C437.336 297.297 439.997 294.635 439.997 291.35C439.997 288.066 437.336 285.404 434.051 285.404ZM5.94608 249.73C2.66198 249.73 0 252.392 0 255.676C0 258.961 2.66198 261.623 5.94608 261.623C9.23018 261.623 11.8922 258.961 11.8922 255.676C11.8922 252.392 9.23018 249.73 5.94608 249.73ZM41.6201 249.73C38.336 249.73 35.674 252.392 35.674 255.676C35.674 258.961 38.336 261.623 41.6201 261.623C44.9042 261.623 47.5662 258.961 47.5662 255.676C47.5662 252.392 44.9042 249.73 41.6201 249.73ZM77.2966 249.73C74.0125 249.73 71.3505 252.392 71.3505 255.676C71.3505 258.961 74.0125 261.623 77.2966 261.623C80.5807 261.623 83.2426 258.961 83.2426 255.676C83.2426 252.392 80.5807 249.73 77.2966 249.73ZM112.971 249.73C109.686 249.73 107.024 252.392 107.024 255.676C107.024 258.961 109.686 261.623 112.971 261.623C116.255 261.623 118.917 258.961 118.917 255.676C118.917 252.392 116.255 249.73 112.971 249.73ZM148.647 249.73C145.363 249.73 142.701 252.392 142.701 255.676C142.701 258.961 145.363 261.623 148.647 261.623C151.931 261.623 154.593 258.961 154.593 255.676C154.593 252.392 151.931 249.73 148.647 249.73ZM184.324 249.73C181.039 249.73 178.377 252.392 178.377 255.676C178.377 258.961 181.039 261.623 184.324 261.623C187.608 261.623 190.27 258.961 190.27 255.676C190.27 252.392 187.608 249.73 184.324 249.73ZM219.998 249.73C216.713 249.73 214.051 252.392 214.051 255.676C214.051 258.961 216.713 261.623 219.998 261.623C223.282 261.623 225.944 258.961 225.944 255.676C225.944 252.392 223.282 249.73 219.998 249.73ZM255.674 249.73C252.39 249.73 249.728 252.392 249.728 255.676C249.728 258.961 252.39 261.623 255.674 261.623C258.958 261.623 261.62 258.961 261.62 255.676C261.62 252.392 258.958 249.73 255.674 249.73ZM291.35 249.73C288.066 249.73 285.404 252.392 285.404 255.676C285.404 258.961 288.066 261.623 291.35 261.623C294.635 261.623 297.297 258.961 297.297 255.676C297.294 252.392 294.632 249.73 291.35 249.73ZM327.024 249.73C323.74 249.73 321.078 252.392 321.078 255.676C321.078 258.961 323.74 261.623 327.024 261.623C330.309 261.623 332.971 258.961 332.971 255.676C332.971 252.392 330.309 249.73 327.024 249.73ZM362.701 249.73C359.417 249.73 356.755 252.392 356.755 255.676C356.755 258.961 359.417 261.623 362.701 261.623C365.985 261.623 368.647 258.961 368.647 255.676C368.647 252.392 365.985 249.73 362.701 249.73ZM398.375 249.73C395.091 249.73 392.429 252.392 392.429 255.676C392.429 258.961 395.091 261.623 398.375 261.623C401.659 261.623 404.321 258.961 404.321 255.676C404.321 252.392 401.659 249.73 398.375 249.73ZM434.051 249.73C430.767 249.73 428.105 252.392 428.105 255.676C428.105 258.961 430.767 261.623 434.051 261.623C437.336 261.623 439.997 258.961 439.997 255.676C439.997 252.392 437.336 249.73 434.051 249.73ZM5.94608 214.054C2.66198 214.054 0 216.716 0 220C0 223.284 2.66198 225.946 5.94608 225.946C9.23018 225.946 11.8922 223.284 11.8922 220C11.8922 216.716 9.23018 214.054 5.94608 214.054ZM41.6201 214.054C38.336 214.054 35.674 216.716 35.674 220C35.674 223.284 38.336 225.946 41.6201 225.946C44.9042 225.946 47.5662 223.284 47.5662 220C47.5662 216.716 44.9042 214.054 41.6201 214.054ZM77.2966 214.054C74.0125 214.054 71.3505 216.716 71.3505 220C71.3505 223.284 74.0125 225.946 77.2966 225.946C80.5807 225.946 83.2426 223.284 83.2426 220C83.2426 216.716 80.5807 214.054 77.2966 214.054ZM112.971 214.054C109.686 214.054 107.024 216.716 107.024 220C107.024 223.284 109.686 225.946 112.971 225.946C116.255 225.946 118.917 223.284 118.917 220C118.917 216.716 116.255 214.054 112.971 214.054ZM148.647 214.054C145.363 214.054 142.701 216.716 142.701 220C142.701 223.284 145.363 225.946 148.647 225.946C151.931 225.946 154.593 223.284 154.593 220C154.593 216.716 151.931 214.054 148.647 214.054ZM184.324 214.054C181.039 214.054 178.377 216.716 178.377 220C178.377 223.284 181.039 225.946 184.324 225.946C187.608 225.946 190.27 223.284 190.27 220C190.27 216.716 187.608 214.054 184.324 214.054ZM219.998 214.054C216.713 214.054 214.051 216.716 214.051 220C214.051 223.284 216.713 225.946 219.998 225.946C223.282 225.946 225.944 223.284 225.944 220C225.944 216.716 223.282 214.054 219.998 214.054ZM255.674 214.054C252.39 214.054 249.728 216.716 249.728 220C249.728 223.284 252.39 225.946 255.674 225.946C258.958 225.946 261.62 223.284 261.62 220C261.62 216.716 258.958 214.054 255.674 214.054ZM291.35 214.054C288.066 214.054 285.404 216.716 285.404 220C285.404 223.284 288.066 225.946 291.35 225.946C294.635 225.946 297.297 223.284 297.297 220C297.297 216.716 294.632 214.054 291.35 214.054ZM327.024 214.054C323.74 214.054 321.078 216.716 321.078 220C321.078 223.284 323.74 225.946 327.024 225.946C330.309 225.946 332.971 223.284 332.971 220C332.971 216.716 330.309 214.054 327.024 214.054ZM362.701 214.054C359.417 214.054 356.755 216.716 356.755 220C356.755 223.284 359.417 225.946 362.701 225.946C365.985 225.946 368.647 223.284 368.647 220C368.647 216.716 365.985 214.054 362.701 214.054ZM398.375 214.054C395.091 214.054 392.429 216.716 392.429 220C392.429 223.284 395.091 225.946 398.375 225.946C401.659 225.946 404.321 223.284 404.321 220C404.321 216.716 401.659 214.054 398.375 214.054ZM434.051 214.054C430.767 214.054 428.105 216.716 428.105 220C428.105 223.284 430.767 225.946 434.051 225.946C437.336 225.946 439.997 223.284 439.997 220C439.997 216.716 437.336 214.054 434.051 214.054ZM5.94608 178.377C2.66198 178.377 0 181.039 0 184.324C0 187.608 2.66198 190.27 5.94608 190.27C9.23018 190.27 11.8922 187.608 11.8922 184.324C11.8922 181.039 9.23018 178.377 5.94608 178.377ZM41.6201 178.377C38.336 178.377 35.674 181.039 35.674 184.324C35.674 187.608 38.336 190.27 41.6201 190.27C44.9042 190.27 47.5662 187.608 47.5662 184.324C47.5662 181.039 44.9042 178.377 41.6201 178.377ZM77.2966 178.377C74.0125 178.377 71.3505 181.039 71.3505 184.324C71.3505 187.608 74.0125 190.27 77.2966 190.27C80.5807 190.27 83.2426 187.608 83.2426 184.324C83.2426 181.039 80.5807 178.377 77.2966 178.377ZM112.971 178.377C109.686 178.377 107.024 181.039 107.024 184.324C107.024 187.608 109.686 190.27 112.971 190.27C116.255 190.27 118.917 187.608 118.917 184.324C118.917 181.039 116.255 178.377 112.971 178.377ZM148.647 178.377C145.363 178.377 142.701 181.039 142.701 184.324C142.701 187.608 145.363 190.27 148.647 190.27C151.931 190.27 154.593 187.608 154.593 184.324C154.593 181.039 151.931 178.377 148.647 178.377ZM184.324 178.377C181.039 178.377 178.377 181.039 178.377 184.324C178.377 187.608 181.039 190.27 184.324 190.27C187.608 190.27 190.27 187.608 190.27 184.324C190.27 181.039 187.608 178.377 184.324 178.377ZM219.998 178.377C216.713 178.377 214.051 181.039 214.051 184.324C214.051 187.608 216.713 190.27 219.998 190.27C223.282 190.27 225.944 187.608 225.944 184.324C225.944 181.039 223.282 178.377 219.998 178.377ZM255.674 178.377C252.39 178.377 249.728 181.039 249.728 184.324C249.728 187.608 252.39 190.27 255.674 190.27C258.958 190.27 261.62 187.608 261.62 184.324C261.62 181.039 258.958 178.377 255.674 178.377ZM291.35 178.377C288.066 178.377 285.404 181.039 285.404 184.324C285.404 187.608 288.066 190.27 291.35 190.27C294.635 190.27 297.297 187.608 297.297 184.324C297.297 181.039 294.632 178.377 291.35 178.377ZM327.024 178.377C323.74 178.377 321.078 181.039 321.078 184.324C321.078 187.608 323.74 190.27 327.024 190.27C330.309 190.27 332.971 187.608 332.971 184.324C332.971 181.039 330.309 178.377 327.024 178.377ZM362.701 178.377C359.417 178.377 356.755 181.039 356.755 184.324C356.755 187.608 359.417 190.27 362.701 190.27C365.985 190.27 368.647 187.608 368.647 184.324C368.647 181.039 365.985 178.377 362.701 178.377ZM398.375 178.377C395.091 178.377 392.429 181.039 392.429 184.324C392.429 187.608 395.091 190.27 398.375 190.27C401.659 190.27 404.321 187.608 404.321 184.324C404.321 181.039 401.659 178.377 398.375 178.377ZM434.051 178.377C430.767 178.377 428.105 181.039 428.105 184.324C428.105 187.608 430.767 190.27 434.051 190.27C437.336 190.27 439.997 187.608 439.997 184.324C439.997 181.039 437.336 178.377 434.051 178.377ZM5.94608 142.703C2.66198 142.703 0 145.365 0 148.65C0 151.934 2.66198 154.596 5.94608 154.596C9.23018 154.596 11.8922 151.934 11.8922 148.65C11.8922 145.365 9.23018 142.703 5.94608 142.703ZM41.6201 142.703C38.336 142.703 35.674 145.365 35.674 148.65C35.674 151.934 38.336 154.596 41.6201 154.596C44.9042 154.596 47.5662 151.934 47.5662 148.65C47.5662 145.365 44.9042 142.703 41.6201 142.703ZM77.2966 142.703C74.0125 142.703 71.3505 145.365 71.3505 148.65C71.3505 151.934 74.0125 154.596 77.2966 154.596C80.5807 154.596 83.2426 151.934 83.2426 148.65C83.2426 145.365 80.5807 142.703 77.2966 142.703ZM112.971 142.703C109.686 142.703 107.024 145.365 107.024 148.65C107.024 151.934 109.686 154.596 112.971 154.596C116.255 154.596 118.917 151.934 118.917 148.65C118.917 145.365 116.255 142.703 112.971 142.703ZM148.647 142.703C145.363 142.703 142.701 145.365 142.701 148.65C142.701 151.934 145.363 154.596 148.647 154.596C151.931 154.596 154.593 151.934 154.593 148.65C154.593 145.365 151.931 142.703 148.647 142.703ZM184.324 142.703C181.039 142.703 178.377 145.365 178.377 148.65C178.377 151.934 181.039 154.596 184.324 154.596C187.608 154.596 190.27 151.934 190.27 148.65C190.27 145.365 187.608 142.703 184.324 142.703ZM219.998 142.703C216.713 142.703 214.051 145.365 214.051 148.65C214.051 151.934 216.713 154.596 219.998 154.596C223.282 154.596 225.944 151.934 225.944 148.65C225.944 145.365 223.282 142.703 219.998 142.703ZM255.674 142.703C252.39 142.703 249.728 145.365 249.728 148.65C249.728 151.934 252.39 154.596 255.674 154.596C258.958 154.596 261.62 151.934 261.62 148.65C261.62 145.365 258.958 142.703 255.674 142.703ZM291.35 142.703C288.066 142.703 285.404 145.365 285.404 148.65C285.404 151.934 288.066 154.596 291.35 154.596C294.635 154.596 297.297 151.934 297.297 148.65C297.297 145.365 294.632 142.703 291.35 142.703ZM327.024 142.703C323.74 142.703 321.078 145.365 321.078 148.65C321.078 151.934 323.74 154.596 327.024 154.596C330.309 154.596 332.971 151.934 332.971 148.65C332.971 145.365 330.309 142.703 327.024 142.703ZM362.701 142.703C359.417 142.703 356.755 145.365 356.755 148.65C356.755 151.934 359.417 154.596 362.701 154.596C365.985 154.596 368.647 151.934 368.647 148.65C368.647 145.365 365.985 142.703 362.701 142.703ZM398.375 142.703C395.091 142.703 392.429 145.365 392.429 148.65C392.429 151.934 395.091 154.596 398.375 154.596C401.659 154.596 404.321 151.934 404.321 148.65C404.321 145.365 401.659 142.703 398.375 142.703ZM434.051 142.703C430.767 142.703 428.105 145.365 428.105 148.65C428.105 151.934 430.767 154.596 434.051 154.596C437.336 154.596 439.997 151.934 439.997 148.65C439.997 145.365 437.336 142.703 434.051 142.703ZM5.94608 107.027C2.66198 107.027 0 109.689 0 112.973C0 116.257 2.66198 118.919 5.94608 118.919C9.23018 118.919 11.8922 116.257 11.8922 112.973C11.8922 109.689 9.23018 107.027 5.94608 107.027ZM41.6201 107.027C38.336 107.027 35.674 109.689 35.674 112.973C35.674 116.257 38.336 118.919 41.6201 118.919C44.9042 118.919 47.5662 116.257 47.5662 112.973C47.5662 109.689 44.9042 107.027 41.6201 107.027ZM77.2966 107.027C74.0125 107.027 71.3505 109.689 71.3505 112.973C71.3505 116.257 74.0125 118.919 77.2966 118.919C80.5807 118.919 83.2426 116.257 83.2426 112.973C83.2426 109.689 80.5807 107.027 77.2966 107.027ZM112.971 107.027C109.686 107.027 107.024 109.689 107.024 112.973C107.024 116.257 109.686 118.919 112.971 118.919C116.255 118.919 118.917 116.257 118.917 112.973C118.917 109.689 116.255 107.027 112.971 107.027ZM148.647 107.027C145.363 107.027 142.701 109.689 142.701 112.973C142.701 116.257 145.363 118.919 148.647 118.919C151.931 118.919 154.593 116.257 154.593 112.973C154.593 109.689 151.931 107.027 148.647 107.027ZM184.324 107.027C181.039 107.027 178.377 109.689 178.377 112.973C178.377 116.257 181.039 118.919 184.324 118.919C187.608 118.919 190.27 116.257 190.27 112.973C190.27 109.689 187.608 107.027 184.324 107.027ZM219.998 107.027C216.713 107.027 214.051 109.689 214.051 112.973C214.051 116.257 216.713 118.919 219.998 118.919C223.282 118.919 225.944 116.257 225.944 112.973C225.944 109.689 223.282 107.027 219.998 107.027ZM255.674 107.027C252.39 107.027 249.728 109.689 249.728 112.973C249.728 116.257 252.39 118.919 255.674 118.919C258.958 118.919 261.62 116.257 261.62 112.973C261.62 109.689 258.958 107.027 255.674 107.027ZM291.35 107.027C288.066 107.027 285.404 109.689 285.404 112.973C285.404 116.257 288.066 118.919 291.35 118.919C294.635 118.919 297.297 116.257 297.297 112.973C297.297 109.689 294.632 107.027 291.35 107.027ZM327.024 107.027C323.74 107.027 321.078 109.689 321.078 112.973C321.078 116.257 323.74 118.919 327.024 118.919C330.309 118.919 332.971 116.257 332.971 112.973C332.971 109.689 330.309 107.027 327.024 107.027ZM362.701 107.027C359.417 107.027 356.755 109.689 356.755 112.973C356.755 116.257 359.417 118.919 362.701 118.919C365.985 118.919 368.647 116.257 368.647 112.973C368.647 109.689 365.985 107.027 362.701 107.027ZM398.375 107.027C395.091 107.027 392.429 109.689 392.429 112.973C392.429 116.257 395.091 118.919 398.375 118.919C401.659 118.919 404.321 116.257 404.321 112.973C404.321 109.689 401.659 107.027 398.375 107.027ZM434.051 107.027C430.767 107.027 428.105 109.689 428.105 112.973C428.105 116.257 430.767 118.919 434.051 118.919C437.336 118.919 439.997 116.257 439.997 112.973C439.997 109.689 437.336 107.027 434.051 107.027ZM5.94608 71.353C2.66198 71.353 0 74.0149 0 77.299C0 80.5831 2.66198 83.2451 5.94608 83.2451C9.23018 83.2451 11.8922 80.5831 11.8922 77.299C11.8922 74.0149 9.23018 71.353 5.94608 71.353ZM41.6201 71.353C38.336 71.353 35.674 74.0149 35.674 77.299C35.674 80.5831 38.336 83.2451 41.6201 83.2451C44.9042 83.2451 47.5662 80.5831 47.5662 77.299C47.5662 74.0149 44.9042 71.353 41.6201 71.353ZM77.2966 71.353C74.0125 71.353 71.3505 74.0149 71.3505 77.299C71.3505 80.5831 74.0125 83.2451 77.2966 83.2451C80.5807 83.2451 83.2426 80.5831 83.2426 77.299C83.2426 74.0149 80.5807 71.353 77.2966 71.353ZM112.971 71.353C109.686 71.353 107.024 74.0149 107.024 77.299C107.024 80.5831 109.686 83.2451 112.971 83.2451C116.255 83.2451 118.917 80.5831 118.917 77.299C118.917 74.0149 116.255 71.353 112.971 71.353ZM148.647 71.353C145.363 71.353 142.701 74.0149 142.701 77.299C142.701 80.5831 145.363 83.2451 148.647 83.2451C151.931 83.2451 154.593 80.5831 154.593 77.299C154.593 74.0149 151.931 71.353 148.647 71.353ZM184.324 71.353C181.039 71.353 178.377 74.0149 178.377 77.299C178.377 80.5831 181.039 83.2451 184.324 83.2451C187.608 83.2451 190.27 80.5831 190.27 77.299C190.27 74.0149 187.608 71.353 184.324 71.353ZM219.998 71.353C216.713 71.353 214.051 74.0149 214.051 77.299C214.051 80.5831 216.713 83.2451 219.998 83.2451C223.282 83.2451 225.944 80.5831 225.944 77.299C225.944 74.0149 223.282 71.353 219.998 71.353ZM255.674 71.353C252.39 71.353 249.728 74.0149 249.728 77.299C249.728 80.5831 252.39 83.2451 255.674 83.2451C258.958 83.2451 261.62 80.5831 261.62 77.299C261.62 74.0149 258.958 71.353 255.674 71.353ZM291.35 71.353C288.066 71.353 285.404 74.0149 285.404 77.299C285.404 80.5831 288.066 83.2451 291.35 83.2451C294.635 83.2451 297.297 80.5831 297.297 77.299C297.297 74.0149 294.632 71.353 291.35 71.353ZM327.024 71.353C323.74 71.353 321.078 74.0149 321.078 77.299C321.078 80.5831 323.74 83.2451 327.024 83.2451C330.309 83.2451 332.971 80.5831 332.971 77.299C332.971 74.0149 330.309 71.353 327.024 71.353ZM362.701 71.353C359.417 71.353 356.755 74.0149 356.755 77.299C356.755 80.5831 359.417 83.2451 362.701 83.2451C365.985 83.2451 368.647 80.5831 368.647 77.299C368.647 74.0149 365.985 71.353 362.701 71.353ZM398.375 71.353C395.091 71.353 392.429 74.0149 392.429 77.299C392.429 80.5831 395.091 83.2451 398.375 83.2451C401.659 83.2451 404.321 80.5831 404.321 77.299C404.321 74.0149 401.659 71.353 398.375 71.353ZM434.051 71.353C430.767 71.353 428.105 74.0149 428.105 77.299C428.105 80.5831 430.767 83.2451 434.051 83.2451C437.336 83.2451 439.997 80.5831 439.997 77.299C439.997 74.0149 437.336 71.353 434.051 71.353ZM5.94608 35.6765C2.66198 35.6765 0 38.3385 0 41.6226C0 44.9067 2.66198 47.5686 5.94608 47.5686C9.23018 47.5686 11.8922 44.9067 11.8922 41.6226C11.8922 38.3385 9.23018 35.6765 5.94608 35.6765ZM41.6201 35.6765C38.336 35.6765 35.674 38.3385 35.674 41.6226C35.674 44.9067 38.336 47.5686 41.6201 47.5686C44.9042 47.5686 47.5662 44.9067 47.5662 41.6226C47.5662 38.3385 44.9042 35.6765 41.6201 35.6765ZM77.2966 35.6765C74.0125 35.6765 71.3505 38.3385 71.3505 41.6226C71.3505 44.9067 74.0125 47.5686 77.2966 47.5686C80.5807 47.5686 83.2426 44.9067 83.2426 41.6226C83.2426 38.3385 80.5807 35.6765 77.2966 35.6765ZM112.971 35.6765C109.686 35.6765 107.024 38.3385 107.024 41.6226C107.024 44.9067 109.686 47.5686 112.971 47.5686C116.255 47.5686 118.917 44.9067 118.917 41.6226C118.917 38.3385 116.255 35.6765 112.971 35.6765ZM148.647 35.6765C145.363 35.6765 142.701 38.3385 142.701 41.6226C142.701 44.9067 145.363 47.5686 148.647 47.5686C151.931 47.5686 154.593 44.9067 154.593 41.6226C154.593 38.3385 151.931 35.6765 148.647 35.6765ZM184.324 35.6765C181.039 35.6765 178.377 38.3385 178.377 41.6226C178.377 44.9067 181.039 47.5686 184.324 47.5686C187.608 47.5686 190.27 44.9067 190.27 41.6226C190.27 38.3385 187.608 35.6765 184.324 35.6765ZM219.998 35.6765C216.713 35.6765 214.051 38.3385 214.051 41.6226C214.051 44.9067 216.713 47.5686 219.998 47.5686C223.282 47.5686 225.944 44.9067 225.944 41.6226C225.944 38.3385 223.282 35.6765 219.998 35.6765ZM255.674 35.6765C252.39 35.6765 249.728 38.3385 249.728 41.6226C249.728 44.9067 252.39 47.5686 255.674 47.5686C258.958 47.5686 261.62 44.9067 261.62 41.6226C261.62 38.3385 258.958 35.6765 255.674 35.6765ZM291.35 35.6765C288.066 35.6765 285.404 38.3385 285.404 41.6226C285.404 44.9067 288.066 47.5686 291.35 47.5686C294.635 47.5686 297.297 44.9067 297.297 41.6226C297.294 38.3385 294.632 35.6765 291.35 35.6765ZM327.024 35.6765C323.74 35.6765 321.078 38.3385 321.078 41.6226C321.078 44.9067 323.74 47.5686 327.024 47.5686C330.309 47.5686 332.971 44.9067 332.971 41.6226C332.971 38.3385 330.309 35.6765 327.024 35.6765ZM362.701 35.6765C359.417 35.6765 356.755 38.3385 356.755 41.6226C356.755 44.9067 359.417 47.5686 362.701 47.5686C365.985 47.5686 368.647 44.9067 368.647 41.6226C368.647 38.3385 365.985 35.6765 362.701 35.6765ZM398.375 35.6765C395.091 35.6765 392.429 38.3385 392.429 41.6226C392.429 44.9067 395.091 47.5686 398.375 47.5686C401.659 47.5686 404.321 44.9067 404.321 41.6226C404.321 38.3385 401.659 35.6765 398.375 35.6765ZM434.051 35.6765C430.767 35.6765 428.105 38.3385 428.105 41.6226C428.105 44.9067 430.767 47.5686 434.051 47.5686C437.336 47.5686 439.997 44.9067 439.997 41.6226C439.997 38.3385 437.336 35.6765 434.051 35.6765ZM5.94608 0C2.66198 0 0 2.66198 0 5.94608C0 9.23018 2.66198 11.8922 5.94608 11.8922C9.23018 11.8922 11.8922 9.23018 11.8922 5.94608C11.8922 2.66198 9.23018 0 5.94608 0ZM41.6201 0C38.336 0 35.674 2.66198 35.674 5.94608C35.674 9.23018 38.336 11.8922 41.6201 11.8922C44.9042 11.8922 47.5662 9.23018 47.5662 5.94608C47.5662 2.66198 44.9042 0 41.6201 0ZM77.2966 0C74.0125 0 71.3505 2.66198 71.3505 5.94608C71.3505 9.23018 74.0125 11.8922 77.2966 11.8922C80.5807 11.8922 83.2426 9.23018 83.2426 5.94608C83.2426 2.66198 80.5807 0 77.2966 0ZM112.971 0C109.686 0 107.024 2.66198 107.024 5.94608C107.024 9.23018 109.686 11.8922 112.971 11.8922C116.255 11.8922 118.917 9.23018 118.917 5.94608C118.917 2.66198 116.255 0 112.971 0ZM148.647 0C145.363 0 142.701 2.66198 142.701 5.94608C142.701 9.23018 145.363 11.8922 148.647 11.8922C151.931 11.8922 154.593 9.23018 154.593 5.94608C154.593 2.66198 151.931 0 148.647 0ZM184.324 0C181.039 0 178.377 2.66198 178.377 5.94608C178.377 9.23018 181.039 11.8922 184.324 11.8922C187.608 11.8922 190.27 9.23018 190.27 5.94608C190.27 2.66198 187.608 0 184.324 0ZM219.998 0C216.713 0 214.051 2.66198 214.051 5.94608C214.051 9.23018 216.713 11.8922 219.998 11.8922C223.282 11.8922 225.944 9.23018 225.944 5.94608C225.944 2.66198 223.282 0 219.998 0ZM255.674 0C252.39 0 249.728 2.66198 249.728 5.94608C249.728 9.23018 252.39 11.8922 255.674 11.8922C258.958 11.8922 261.62 9.23018 261.62 5.94608C261.62 2.66198 258.958 0 255.674 0ZM291.35 0C288.066 0 285.404 2.66198 285.404 5.94608C285.404 9.23018 288.066 11.8922 291.35 11.8922C294.635 11.8922 297.297 9.23018 297.297 5.94608C297.294 2.66198 294.632 0 291.35 0ZM327.024 0C323.74 0 321.078 2.66198 321.078 5.94608C321.078 9.23018 323.74 11.8922 327.024 11.8922C330.309 11.8922 332.971 9.23018 332.971 5.94608C332.971 2.66198 330.309 0 327.024 0ZM362.701 0C359.417 0 356.755 2.66198 356.755 5.94608C356.755 9.23018 359.417 11.8922 362.701 11.8922C365.985 11.8922 368.647 9.23018 368.647 5.94608C368.647 2.66198 365.985 0 362.701 0ZM398.375 0C395.091 0 392.429 2.66198 392.429 5.94608C392.429 9.23018 395.091 11.8922 398.375 11.8922C401.659 11.8922 404.321 9.23018 404.321 5.94608C404.321 2.66198 401.659 0 398.375 0ZM434.051 0C430.767 0 428.105 2.66198 428.105 5.94608C428.105 9.23018 430.767 11.8922 434.051 11.8922C437.336 11.8922 439.997 9.23018 439.997 5.94608C439.997 2.66198 437.336 0 434.051 0Z" fill="url(#paint0_radial_22_1228)"/>
<defs>
<radialGradient id="paint0_radial_22_1228" cx="0" cy="0" r="1" gradientUnits="userSpaceOnUse" gradientTransform="translate(219.999 220) scale(219.999 219.999)">
<stop stop-color="#D4D4D5"/>
<stop offset="0.2987" stop-color="#6145EA"/>
<stop offset="0.713652" stop-color="#6145EA" stop-opacity="0"/>
</radialGradient>
</defs>
</svg>
